# xmcd
#
# Track frame offsets:
#	150
#	14324
#	27699
#	40099
#	53580
#	69162
#	83419
#	99397
#	111710
#	127181
#	139406
#	153896
#
# Disc length: 2221 seconds
#
# Revision: 1
# Processed by: cddbd v1.5.1PL0 Copyright (c) Steve Scherf et al.
# Submitted via: audiograbber 1.83.01
#
DISCID=9c08ab0c
DTITLE=Πάνος Γαβαλάς - Μεγάλες επιτυχίες
DYEAR=1900
DGENRE=
TTITLE0=Κάθε λιμάνι και καυμός
TTITLE1=Το ξέρω
TTITLE2=Ενα αντίο πικρό
TTITLE3=Πόσο λυπάμαι
TTITLE4=Ζωή γεμάτη πόνο
TTITLE5=Μη μελαγχολής
TTITLE6=Ονειρο δεμένο
TTITLE7=Τα χρόνια δεν έχουν καμιά σημασία
TTITLE8=Ρίχνω τα ζάρια
TTITLE9=Σήμερα σ'εχω αγκαλιά
TTITLE10=Πρέπει να φύγω
TTITLE11=Στην καρδιά μου ανάβει φωτιά
EXTD=
EXTT0=
EXTT1=
EXTT2=
EXTT3=
EXTT4=
EXTT5=
EXTT6=
EXTT7=
EXTT8=
EXTT9=
EXTT10=
EXTT11=
PLAYORDER=
